<?xml version="1.0" encoding="UTF-8"?>
<svg width="30px" height="30px" viewBox="0 0 30 30" version="1.1" xmlns="http://www.w3.org/2000/svg" xmlns:xlink="http://www.w3.org/1999/xlink">
    <title>group 2</title>
    <desc>Created with Sketch.</desc>
    <g id="page-1" stroke="none" stroke-width="1" fill="none" fill-rule="evenodd">
        <g id="Pricing" transform="translate(-678.000000, -930.000000)">
            <g id="group-2" transform="translate(678.000000, 930.000000)">
                <path d="M30,0 L30,21 C30,25.9705627 25.9705627,30 21,30 L0,30 L0,30 L30,0 Z" id="rect" fill="#DFEDFF"></path>
                <path d="M26.4,18.5690927 C26.1337822,18.6172363 25.8231723,18.761491 25.4459876,18.9539186 L24.4918668,19.5310548 C22.095609,21.1423099 18.7229938,24.2445196 17.7689001,26 C16.1269576,24.0040364 13.6419154,21.9359455 12,21.3827637 L15.8385573,19.5310548 L17.5248107,22.7776367 C17.5248107,22.7776367 19.8324195,19.4348557 22.7389844,16.7173544 L23.7375245,15.8276371 C24.6027525,15.1061288 25.5125352,14.4568652 26.4,14 C26.3112156,15.5390103 25.6678402,16.9097821 26.4,18.5690927 Z" id="p1" fill="#4A96FA"></path>
            </g>
        </g>
    </g>
</svg>