<svg id="layer_1" data-name="layer 1" xmlns="http://www.w3.org/2000/svg" xmlns:xlink="http://www.w3.org/1999/xlink" viewBox="0 0 1024 1024"><defs><style>.cls-1{fill:#333;}.cls-2{fill:url(#gradient_10);}.cls-3{fill:url(#gradient_10-2);}.cls-4{fill:url(#gradient_10-3);}.cls-5{fill:url(#gradient_10-4);}.cls-6{fill:url(#gradient_10-5);}.cls-7{fill:url(#gradient_10-6);}.cls-8{fill:url(#gradient_10-7);}.cls-9{fill:url(#gradient_10-8);}.cls-10{fill:url(#gradient_10-9);}.cls-11{fill:url(#gradient_10-10);}.cls-12{fill:url(#gradient_10-11);}</style><linearGradient id="gradient_10" x1="307.96" y1="512" x2="716.03" y2="512" gradientUnits="userSpaceOnUse"><stop offset="0" stop-color="#fda9ff"/><stop offset="1" stop-color="#039cff"/></linearGradient><linearGradient id="gradient_10-2" x1="285.06" y1="511.99" x2="738.93" y2="511.99" xlink:href="#gradient_10"/><linearGradient id="gradient_10-3" x1="262.17" y1="511.99" x2="761.83" y2="511.99" xlink:href="#gradient_10"/><linearGradient id="gradient_10-4" x1="239.27" y1="511.98" x2="784.72" y2="511.98" xlink:href="#gradient_10"/><linearGradient id="gradient_10-5" x1="216.38" y1="511.98" x2="807.62" y2="511.98" xlink:href="#gradient_10"/><linearGradient id="gradient_10-6" x1="193.48" y1="511.97" x2="830.52" y2="511.97" xlink:href="#gradient_10"/><linearGradient id="gradient_10-7" x1="170.58" y1="511.97" x2="853.41" y2="511.97" xlink:href="#gradient_10"/><linearGradient id="gradient_10-8" x1="147.69" y1="511.97" x2="876.31" y2="511.97" xlink:href="#gradient_10"/><linearGradient id="gradient_10-9" x1="124.79" y1="511.96" x2="899.21" y2="511.96" xlink:href="#gradient_10"/><linearGradient id="gradient_10-10" x1="101.9" y1="511.95" x2="922.11" y2="511.95" xlink:href="#gradient_10"/><linearGradient id="gradient_10-11" x1="79" y1="511.95" x2="945" y2="511.95" xlink:href="#gradient_10"/></defs><circle class="cls-1" cx="512" cy="512" r="512"/><path class="cls-2" d="M512,716c-112.51,0-204-91.52-204-204s91.53-204,204-204S716,399.5,716,512,624.5,716,512,716Zm0-401.44c-108.86,0-197.41,88.56-197.41,197.41S403.14,709.41,512,709.41,709.4,620.85,709.4,512,620.85,314.59,512,314.59Z" transform="translate(0 0)"/><path class="cls-3" d="M512,703.12V696.5c121.46,0,220.28-82.77,220.28-184.5S633.47,327.49,512,327.49,291.69,410.25,291.69,512,390.52,696.49,512,696.5l0,3.31v3.31c-125.15,0-227-85.75-227-191.14S386.85,320.87,512,320.87s227,85.74,227,191.13S637.14,703.12,512,703.12Z" transform="translate(0 0)"/><path class="cls-4" d="M512.06,690.21H512c-137.76,0-249.83-80-249.83-178.25S374.22,333.77,512,333.77s249.88,80,249.88,178.24S649.78,690.21,512.06,690.21ZM512,340.4c-134.13,0-243.21,77-243.21,171.56S377.9,683.58,512,683.58h.06c134.07,0,243.14-77,243.14-171.57S646.1,340.4,512,340.4Z" transform="translate(0 0)"/><path class="cls-5" d="M512.1,677.3H512c-150.38,0-272.73-74.18-272.73-165.35s122.3-165.28,272.64-165.28S784.72,420.85,784.72,512,662.42,677.3,512.1,677.3Zm-.1-324c-146.77,0-266.1,71.17-266.1,158.65S365.27,670.67,512,670.67h.1c146.67,0,266-71.17,266-158.65S658.72,353.3,512,353.3Z" transform="translate(0 0)"/><path class="cls-6" d="M512.15,664.39H512c-163,0-295.62-68.4-295.62-152.46S348.93,359.57,511.85,359.57C675,359.57,807.62,428,807.62,512S675.07,664.39,512.15,664.39ZM512,366.2c-77.39,0-150.22,15.55-205.22,43.78-54,27.73-83.78,63.94-83.78,101.95s29.77,74.28,83.82,102c55,28.25,127.91,43.81,205.18,43.81l.15,3.31v-3.31c77.24,0,150.06-15.55,205.07-43.78C771.24,586.25,801,550,801,512s-29.77-74.27-83.82-102C662.14,381.76,589.28,366.2,512,366.2Z" transform="translate(0 0)"/><path class="cls-7" d="M512.24,651.47H512c-175.64,0-318.53-62.6-318.53-139.55s142.79-139.44,318.3-139.44c175.86,0,318.74,62.6,318.74,139.55S687.74,651.47,512.24,651.47ZM512,379.1c-169.17,0-311.9,60.83-311.9,132.82S342.94,644.85,512,644.85l.23,3.31v-3.31C681.17,644.85,823.89,584,823.89,512S681.07,379.1,512,379.1Z" transform="translate(0 0)"/><path class="cls-8" d="M512.33,638.56H512c-188.26,0-341.43-56.82-341.43-126.66s153-126.52,341.12-126.52c188.56,0,341.71,56.82,341.71,126.66S700.41,638.56,512.33,638.56ZM512,392c-181.62,0-334.8,54.91-334.8,119.9s153.32,120,334.8,120h.32c181.3,0,334.46-54.9,334.46-119.89S693.48,392,512,392Z" transform="translate(0 0)"/><path class="cls-9" d="M512.45,625.65H512c-95.93,0-186.94-11.85-256.25-33.36-69.69-21.63-108.07-50.18-108.07-80.4S186,453.19,255.61,431.6c69.23-21.49,160.13-33.32,256-33.32H512c95.92,0,186.92,11.85,256.23,33.36,69.69,21.63,108.07,50.19,108.07,80.4s-38.33,58.7-107.93,80.3C699.15,613.82,608.26,625.65,512.45,625.65Zm-.89-220.74c-190.31,0-357.24,50-357.24,107S321.46,619,512,619h.44c190.3,0,357.23-50,357.23-107S702.55,404.91,512,404.91Z" transform="translate(0 0)"/><path class="cls-10" d="M512.61,612.74H512c-101.69,0-198.39-10.54-272.29-29.67-74.11-19.18-114.93-44.47-114.93-71.2s40.75-51.93,114.73-71.08c73.79-19.09,170.35-29.61,271.9-29.61H512c101.68,0,198.37,10.54,272.27,29.67,74.11,19.18,114.93,44.47,114.93,71.2S858.46,564,784.47,583.13C710.69,602.22,614.15,612.74,512.61,612.74Zm-1.19-194.93c-223.94,0-380,49.57-380,94.06S287.72,606.11,512,606.11h.6c223.93,0,380-49.57,380-94.06S736.29,417.81,512,417.81Z" transform="translate(0 0)"/><path class="cls-11" d="M512.83,599.82H512c-222.31,0-410.12-40.28-410.12-88s187.43-87.77,409.29-87.77H512c222.29,0,410.09,40.29,410.09,88S734.68,599.82,512.83,599.82Zm-1.64-169.11c-106.7,0-208.42,9.15-286.41,25.77C152,472,108.52,492.69,108.52,511.86s43.56,39.95,116.53,55.51C303.21,584,405.13,593.2,512,593.2h.81c106.69,0,208.4-9.15,286.39-25.77,72.8-15.51,116.26-36.21,116.26-55.37s-43.56-40-116.52-55.52C720.8,439.89,618.9,430.71,512,430.71Z" transform="translate(0 0)"/><path class="cls-12" d="M513.12,586.91H512c-234.72,0-433-34.38-433-75.07S276.79,437,510.92,437H512c234.7,0,433,34.38,433,75.07S747.23,586.91,513.12,586.91Zm-2.2-143.29c-112.23,0-219.67,7.86-302.55,22.12-90.5,15.59-122.74,34-122.74,46.1s32.34,30.6,123.1,46.24c83.11,14.32,190.81,22.2,303.29,22.2h1.1c112.21,0,219.64-7.85,302.51-22.13,90.5-15.58,122.74-34,122.74-46.09S906,481.45,815.27,465.82c-83.1-14.32-190.79-22.2-303.25-22.2Z" transform="translate(0 0)"/></svg>