<?xml version="1.0" encoding="UTF-8"?>
<svg width="24px" height="24px" viewBox="0 0 24 24" version="1.1" xmlns="http://www.w3.org/2000/svg" xmlns:xlink="http://www.w3.org/1999/xlink">
    <title>gerenzhongxin</title>
    <desc>Created with Sketch.</desc>
    <g id="page-1" stroke="none" stroke-width="1" fill="none" fill-rule="evenodd">
        <g id="billing" transform="translate(-1163.000000, -18.000000)">
            <g id="gerenzhongxin" transform="translate(1163.000000, 18.000000)">
                <path d="M0,11.9999729 C0,16.2871532 2.28711248,20.2487288 5.99992438,22.3922725 C9.71270526,24.5359092 14.2872094,24.5359092 18.0000213,22.3922725 C21.7128332,20.2487288 24.0000698,16.2871532 24.0000698,11.9999729 C24.0000698,5.37257073 18.627375,0 11.9999729,0 C5.37257073,0 0,5.37257073 0,11.9999729 Z" id="Fill-1" fill="#4A96FA"></path>
                <path d="M9.42311686,9.39256039 C9.42311686,7.99999224 10.556498,6.86403634 11.951734,6.86403634 C13.3468769,6.86403634 14.480258,7.99741744 14.480258,9.39256039 C14.480258,10.7878274 13.3468769,11.9212085 11.951734,11.9212085 C10.556498,11.9212085 9.42311686,10.7852837 9.42311686,9.39256039 L9.42311686,9.39256039 Z M15.5628564,9.39256039 C15.5628564,7.40282279 13.9415026,5.78143792 11.951734,5.78143792 C9.96187228,5.78143792 8.34048741,7.40024798 8.34048741,9.39256039 C8.34048741,10.5997423 8.93765687,11.667078 9.85000771,12.3226615 C7.71279251,13.1638794 6.19306605,15.2452554 6.19306605,17.6772086 C6.19306605,17.9771272 6.43447762,18.2185078 6.73439628,18.2185078 C7.03431495,18.2185078 7.27569549,17.9771272 7.27569549,17.6772086 C7.27569549,15.1003216 9.3722101,13.003807 11.9491902,13.003807 C11.9719912,13.003807 11.9923415,13.0012632 12.0152356,13.0012632 C14.6251918,13.003807 16.7242502,15.1003216 16.7242502,17.6797524 C16.7242502,17.979671 16.9656308,18.2210516 17.2655494,18.2210516 C17.5654681,18.2210516 17.8068486,17.979671 17.8068486,17.6797524 C17.8068486,15.2223613 16.2566278,13.1257226 14.0838926,12.2998915 C14.9809807,11.6390964 15.5628564,10.5844796 15.5628564,9.39256039 Z" id="Fill-2" fill="#FFFFFF"></path>
            </g>
        </g>
    </g>
</svg>