<svg xmlns="http://www.w3.org/2000/svg" xmlns:xlink="http://www.w3.org/1999/xlink" viewBox="0 0 666.56 506.6"><defs><style>.cls-1{isolation:isolate;}.cls-2{fill:#f2f4ff;}.cls-10,.cls-11,.cls-12,.cls-13,.cls-14,.cls-15,.cls-16,.cls-17,.cls-18,.cls-19,.cls-2,.cls-20,.cls-21,.cls-22,.cls-23,.cls-24,.cls-25,.cls-26,.cls-27,.cls-3,.cls-4,.cls-5,.cls-6,.cls-7,.cls-8,.cls-9{fill-rule:evenodd;}.cls-3{fill:url(#linear-gradient);}.cls-4,.cls-5{fill:#fff;}.cls-4{opacity:0.2;}.cls-6{fill:url(#linear-gradient-2);}.cls-7{fill:#21389b;}.cls-8{fill:#f0b186;}.cls-9{fill:url(#linear-gradient-3);}.cls-10,.cls-14{opacity:0.5;mix-blend-mode:multiply;}.cls-10{fill:url(#linear-gradient-5);}.cls-11{fill:#6d6afd;}.cls-12{fill:#4755fc;}.cls-13{fill:url(#linear-gradient-6);}.cls-14{fill:url(#linear-gradient-7);}.cls-15{fill:url(#linear-gradient-8);}.cls-16{fill:#f3f8ff;}.cls-17{fill:url(#linear-gradient-9);}.cls-18{fill:url(#linear-gradient-10);}.cls-19{fill:url(#linear-gradient-11);}.cls-20{fill:url(#linear-gradient-12);}.cls-21{fill:#4a9ff8;}.cls-22{fill:#ffa698;}.cls-23{fill:url(#linear-gradient-13);}.cls-24{fill:#ffb49c;}.cls-25{fill:#ff9d8e;}.cls-26{fill:#562e65;}.cls-27{fill:url(#linear-gradient-14);}</style><linearGradient id="linear-gradient" x1="729.78" y1="360.73" x2="694.1" y2="401.37" gradientUnits="userSpaceOnUse"><stop offset="0" stop-color="#1c8ef4"/><stop offset="1" stop-color="#00cfdd"/></linearGradient><linearGradient id="linear-gradient-2" x1="563.75" y1="350.89" x2="577.22" y2="390.79" xlink:href="#linear-gradient"/><linearGradient id="linear-gradient-3" x1="486.99" y1="496.68" x2="461.04" y2="481.68" gradientUnits="userSpaceOnUse"><stop offset="0" stop-color="#6d6afe"/><stop offset="1" stop-color="#3fb0f7"/></linearGradient><linearGradient id="linear-gradient-5" x1="489.62" y1="498.3" x2="465.13" y2="484.23" xlink:href="#linear-gradient-3"/><linearGradient id="linear-gradient-6" x1="401.11" y1="577.62" x2="224.39" y2="772.39" xlink:href="#linear-gradient-3"/><linearGradient id="linear-gradient-7" x1="406.7" y1="582.69" x2="229.98" y2="777.46" xlink:href="#linear-gradient-3"/><linearGradient id="linear-gradient-8" x1="407.85" y1="600.19" x2="394.57" y2="768.02" xlink:href="#linear-gradient-3"/><linearGradient id="linear-gradient-9" x1="500.36" y1="501.56" x2="445.07" y2="605.75" xlink:href="#linear-gradient-3"/><linearGradient id="linear-gradient-10" x1="690.82" y1="436.97" x2="685.39" y2="430.66" gradientUnits="userSpaceOnUse"><stop offset="0" stop-color="#ff8a78"/><stop offset="1" stop-color="#ffa799"/></linearGradient><linearGradient id="linear-gradient-11" x1="566.54" y1="501.55" x2="752.82" y2="444.19" xlink:href="#linear-gradient-3"/><linearGradient id="linear-gradient-12" x1="544.85" y1="451.69" x2="538.82" y2="461.42" xlink:href="#linear-gradient-10"/><linearGradient id="linear-gradient-13" x1="561.46" y1="429.38" x2="552.29" y2="440.7" gradientUnits="userSpaceOnUse"><stop offset="0" stop-color="#ffb89e"/><stop offset="1" stop-color="#ffa799"/></linearGradient><linearGradient id="linear-gradient-14" x1="555.62" y1="398.63" x2="525.28" y2="408.66" gradientUnits="userSpaceOnUse"><stop offset="0" stop-color="#8a4791"/><stop offset="1" stop-color="#562e65"/></linearGradient></defs><g class="cls-1"><g id="图层_1" data-name="图层 1"><path class="cls-2" d="M586.53,257.82c0-6.46-2.27-10.47.5-14,1.77-2.24,7.9-5,10.49-5.87,5-1.73,11.4-.83,18.32,3.17L816.16,357.74c16.12,9.31,29.17,31.92,29.12,50.45l-.7,93c0,5.74-1.21,13.1-5.62,17.13-3.14,2.87-8.64,5.75-12.73,6.08s-5.82-3.54-11-6.51L615,401.26c-16.14-9.32-29.18-31.91-29.13-50.44Z" transform="translate(-178.72 -237.11)"/><path class="cls-3" d="M581.86,260.57c.06-18.53,13.18-26,29.32-16.71L811.49,360.49c16.12,9.31,29.17,31.92,29.12,50.44l-.69,93c-.06,18.53-13.2,26-29.32,16.71L610.29,404c-16.14-9.32-29.17-31.92-29.12-50.45Z" transform="translate(-178.72 -237.11)"/><path class="cls-4" d="M624.88,298.84c19.54,5.17,37,28.29,39,51.64s-12.17,38.09-31.71,32.93-37-28.29-39-51.64S605.35,293.67,624.88,298.84Z" transform="translate(-178.72 -237.11)"/><path class="cls-5" d="M626.57,318.33c10.54,2.78,20,15.25,21,27.84s-6.56,20.53-17.1,17.75-19.95-15.25-21-27.84,6.56-20.54,17.09-17.75ZM627.5,329c-5.6-1.48-9.66,2.75-9.08,9.43s5.58,13.31,11.18,14.79,9.66-2.74,9.08-9.43S633.09,330.49,627.5,329Z" transform="translate(-178.72 -237.11)"/><path class="cls-4" d="M674.63,345.83c0-4.94,3.52-6.88,7.83-4.32l130.53,74c4.3,2.56,7.78,8.65,7.77,13.6v9.78c0,4.94-3.52,6.88-7.83,4.33l-130.53-74c-4.3-2.56-7.78-8.65-7.77-13.59Z" transform="translate(-178.72 -237.11)"/><path class="cls-4" d="M674.63,381.81c0-2.91,2.08-4.06,4.62-2.55L756.33,423a10.33,10.33,0,0,1,4.59,8v5.78c0,2.92-2.08,4.07-4.62,2.56l-77.08-43.72a10.33,10.33,0,0,1-4.59-8Z" transform="translate(-178.72 -237.11)"/><path class="cls-5" d="M566.31,319.38c23.33,6.18,44.21,33.8,46.63,61.7s-14.54,45.51-37.88,39.34-44.22-33.8-46.64-61.7S543,313.21,566.31,319.38Z" transform="translate(-178.72 -237.11)"/><path class="cls-6" d="M555.7,359.3l.11-9c0-5.39,1-8.89,3-10.7,2.43-2.18,5.61-2,9.58.36l8.65,4.87c4.22,2.15,6.64,4.8,8,8.47,1.3,3.43,1.58,7.56,1.58,13v6.49a32.52,32.52,0,0,1,2.92,10.73c1.08,12.48-6.51,20.35-16.94,17.59S552.87,386,551.79,373.55c-.53-6.07,1-11.05,3.91-14.25Zm25.56,5.08c-.06-3.88-.34-6.87-1.2-9.15s-2.57-4.12-5.53-5.62-5.87-3.44-8.83-5c-1.77-1-2.87-1.39-3.29-1-.81.73-1.22,2.91-1.22,6.7l-.07,5.57a14.15,14.15,0,0,1,7.61.06A25.89,25.89,0,0,1,581.26,364.38Z" transform="translate(-178.72 -237.11)"/><path class="cls-7" d="M573.38,379.9v6.34a2.7,2.7,0,0,1-5.39,0v-8.41a8,8,0,0,1-1.69-4.16c-.25-2.89,1.51-4.72,3.93-4.08s4.59,3.51,4.84,6.4C575.23,377.87,574.55,379.3,573.38,379.9Z" transform="translate(-178.72 -237.11)"/><path class="cls-8" d="M519.56,527.71c2.07-.06,4.75.72,7.06.64,1,0,4.17.49,5.18.45,17.26,4.89,15.33-3,27.59-9.85,4.12-1.31,8-2.71,12.09-4.13,4.67-1.62,6.67-3.24,6.28-6.32-.34-2.67-.41-3.88-.75-6.55-.25-2-.73-3.21-5.08-2.76-5.89.6-13.4,1.72-16.68,3.05-4.52,1.82-12,8.84-19.17,11a12.71,12.71,0,0,1-4.84.93l-7.74-.88Z" transform="translate(-178.72 -237.11)"/><path class="cls-9" d="M443.3,501.78c-9.3,10.63-2.27,21.35,6.13,22.42,29,5.4,40.9,6.65,62.37,6.77a32.8,32.8,0,0,0,11.06-2.4c2.07-.05,5.94.66,8.19.6-.34-3.24-.64-11.69,3.22-15.73-2.69-.24-6.58-.07-8.59-.67-1-1.33-4.95-2.83-8.06-3.75-9.07-2.69-18-5.08-28-7.69,10.89-6.09,25.08-15.13,29.05-21.59,7.3-11.87-6.73-23.22-18.24-19.91C482.06,465.09,457,489.12,443.3,501.78Z" transform="translate(-178.72 -237.11)"/><path class="cls-9" d="M443.3,501.78c-9.3,10.63-2.27,21.35,6.13,22.42,29,5.4,40.9,6.65,62.37,6.77a32.8,32.8,0,0,0,11.06-2.4c2.07-.05,5.94.66,8.19.6-.34-3.24-.64-11.69,3.22-15.73-2.69-.24-6.58-.07-8.59-.67-1-1.33-4.95-2.83-8.06-3.75-9.07-2.69-18-5.08-28-7.69,10.89-6.09,25.08-15.13,29.05-21.59,7.3-11.87-6.73-23.22-18.24-19.91C482.06,465.09,457,489.12,443.3,501.78Z" transform="translate(-178.72 -237.11)"/><path class="cls-10" d="M440.36,517.93a12.32,12.32,0,0,0,9.07,6.27c29,5.4,40.9,6.65,62.37,6.77a32.8,32.8,0,0,0,11.06-2.4c2.07-.05,5.94.66,8.19.6-.34-3.24-.64-11.69,3.22-15.74-2.69-.23-6.58-.06-8.59-.66-1-1.33-4.95-2.83-8.06-3.75-9.07-2.69-18-5.08-28-7.69,10.89-6.09,25.08-15.13,29.05-21.59,7.3-11.87-6.65-22.69-18.24-19.68-7.15,1.86-14.34,7.06-22.6,15.12C464.83,487.83,450.62,506,440.36,517.93Z" transform="translate(-178.72 -237.11)"/><path class="cls-11" d="M233.37,704.67c4.18-8.58,6.34-13.2.9-21.94-1.77-2-4.57-3.09-7.77-3.87-8-6.75-15.86-.44-21.6,7.17-5.32,7.07-4.58,9.28-8,12.29a22.82,22.82,0,0,1-5.27,2.91c-6.68,3.15-10.65,11.85-12.16,16.88-2.34,7.75.9,19.33,6.7,25,2.17,2.11,7.11-1.71,10.07-4.85,6.1-6.45,8.14-10,11.65-13.53,4.58-4.64,9.59-7.71,14.92-11.12C225.47,711.91,232,707.51,233.37,704.67Z" transform="translate(-178.72 -237.11)"/><path class="cls-12" d="M217.46,676.32c-4.67,1-9.06,5.09-12.56,9.71-5.34,7.06-4.58,9.28-8,12.29a22.82,22.82,0,0,1-5.27,2.91c-6.68,3.15-10.65,11.85-12.16,16.88-2.34,7.75.9,19.33,6.7,25a2.09,2.09,0,0,0,1.06.55,12.64,12.64,0,0,0,3.48-4.38c4.52-8.11,8.74-22.33,14.46-28.24,2.75-2.85,5.59-4.37,8.23-6.76,4.54-4.12,8.42-8.8,10.21-14.76C225.3,684,223.3,677.2,217.46,676.32Z" transform="translate(-178.72 -237.11)"/><path class="cls-13" d="M471.39,556.84c-4.73,2.81-14.5-5.45-20.36-3.92-14.19,3.7-20.46,4.36-33.76,10.05-10.82,4.63-22.2,16.72-30,29.37-11.25,18.15-35.65,36.56-44.88,42.29-13.25,8.24-27.65,8-43.85,13.85-23.73,8.61-46.8,23.76-68.55,30.59,6.1,8.41,2.57,25.73-5.9,35.22,34.82-16.47,114.42-26.38,133.1-37.43,25.81-15.28,83.51-58.93,104.77-79l.94-17.7Z" transform="translate(-178.72 -237.11)"/><path class="cls-14" d="M471.39,556.84c-4.73,2.81-14.5-5.44-20.36-3.92-14.19,3.7-20.46,4.36-33.76,10.05-6.26,2.67-12.7,7.84-18.54,14.18,3.76,12.2,8.11,23,6,30.52-3,10.77-12.73,24.05-26.76,38.88a97.43,97.43,0,0,0-19.88-23.44,168.77,168.77,0,0,1-15.79,11.52c-6.17,3.84-12.58,5.83-19.32,7.46,2,8.91,3.83,17.66,5.51,26.7-41.46,3.45-62,14.34-96.82,30.79A37.05,37.05,0,0,1,224,714.29c34.82-16.47,114.42-26.38,133.1-37.43,25.81-15.28,83.51-58.93,104.77-79l.94-17.7Z" transform="translate(-178.72 -237.11)"/><path class="cls-11" d="M341.69,598.87c.06-3.32,1.13-6.12.44-9.73s-3.11-8-7.79-9.57c-5.14-1.73-11.54-.13-16.9,2.64-4.4,2.28-5.55,4.21-9.31,7.56-5.05,4.52-25.29-2.73-35.22,13.59-2.73,4.5-3.46,11.2,3.8,14.44,5.28,2.35,12.22-1.33,21.38-2,4.14-.3,9.4.73,14,1.94,7.21,1.9,13.2,2.1,14.22,1.43,10.67-7,17.09-5.68,15.91-14.28A40.53,40.53,0,0,1,341.69,598.87Z" transform="translate(-178.72 -237.11)"/><path class="cls-12" d="M334.34,579.57c-5.14-1.73-11.49,0-16.9,2.64-7.8,3.84-10.88,7.26-22,7.92-7.43.44-18.11,6-22.53,13.23-1.61,2.65-2.53,6.08-1.51,9.1,5.93,4.06,19-2.6,24.85-5.13,16.4-7.11,8.07-7.63,28.65-10.62C337.23,594.92,348.64,584.37,334.34,579.57Z" transform="translate(-178.72 -237.11)"/><path class="cls-15" d="M497.54,584.78C494,592,487.82,602.05,482,611.08c-11.8,32.94-34.25,59-56.1,80.06-7.81,7.53-38.5,41-55.66,37.36-9.78-2-13.53-10.51-16.8-18.88-12.23-31.31-19.95-56.4-35.59-90.3,6.54-.83,22-6.88,25.21-14,5.48,15.77,34.34,42.44,38.17,64.26,17.16-25.84,25.49-40.9,29.21-54.83,7.11-26.67,7.43-32.61,34.05-45.3,9.05-4.31,14,2.9,26.87-3.3Z" transform="translate(-178.72 -237.11)"/><path class="cls-16" d="M533.88,559c-11.43,12.27-22.64,20.64-41.75,37-14.22,11.93-56.51-1.15-68.87-36.15,11.94-7.17,18.91-13.73,28.13-25.5C466,515.73,479,455.13,509.59,460c9.52,1.53,46.38,20.28,56.82,27.58,12.54,8.12,16.31,18.32,8.53,30.36C564.75,533.73,540.31,552.08,533.88,559Z" transform="translate(-178.72 -237.11)"/><path class="cls-17" d="M481.61,476.43c-20,25.61-40.19,63.54-80.86,59-6.45,4.61-7.59,12.49-5.34,21.16,8.06,4.51,19.83,6.51,30.54,4.52-13.31,3-20.2,3.41-28.39,1.74a70.46,70.46,0,0,0,13.95,20.7C446.46,619.82,556,547.23,574.94,518c7.78-12,4-22.24-8.53-30.36-9.26-6.47-39.28-22-52.61-26.43A23.32,23.32,0,0,0,504,459.7C495.25,460.5,487.85,467.41,481.61,476.43Z" transform="translate(-178.72 -237.11)"/><path class="cls-18" d="M663.8,446.92l10.67,9.5a31.58,31.58,0,0,1,5.61-5.89c9.42-1.9,9.32-2.52,15.59-9.69,2.23-.95,2.78-.73,3.54-2.88a23,23,0,0,0,1.15-4.2c1.1-1.22,1.23-1.82,1-2.64-1.12-3.42-3.5-3.45-6.4-7.34-.9-1.2-2.95-2.24-2.45-3.25l2-4.46,4.41-6c1.57-2.25,2-3,.68-4.27-1-1-2.87-1.89-5.57,1.26-1.38,1.78-3.45,3.66-4.68,5.33-1.39,1.89-2.59,3.88-4.17,5.87-1.17,1.49-3,3.45-4.18,4.9-2.34,2.8-4.81,5.43-7.27,8.21-3.45,3.88-3.13,8.32-5.06,10.44C667.35,443.24,665.69,445,663.8,446.92Z" transform="translate(-178.72 -237.11)"/><path class="cls-19" d="M563.62,492.33c15.62-8.13,43.61-8,59.68-15.39l27.56-23.86c4.46-3.76,6.34-6.37,12-7.65l4.6-3.59c4.74-.15,12.6,7.92,12,10.65l-2.93,3.35c-1.56,6.1-5.11,8.92-9.48,13.55l-26.67,27.69c-13.87,7.81-64.84,35.55-80,32.41C544.26,526.15,549.57,499.65,563.62,492.33Z" transform="translate(-178.72 -237.11)"/><path class="cls-20" d="M555.77,451.81c-1.69,5.08-3.23,15.52-3.07,22.61-11.41-1.19-26.88-7.09-27.25-16.57,1.15-4.76,2.16-9.83,1.18-12.18C543.33,448.81,543.51,440.1,555.77,451.81Z" transform="translate(-178.72 -237.11)"/><path class="cls-21" d="M525.36,457.52c-3.57.51-8.23,4.74-8,7.08,1.17,14.35,27.88,22.11,44.15,21.29.19,0-5.54-10.9-8.4-12.36C543.08,472.92,527.11,466.16,525.36,457.52Z" transform="translate(-178.72 -237.11)"/><path class="cls-22" d="M551.89,457.87c-3.56.46-6.94-2.8-10.67-9.11-3.16-5.34-16.55,8-16.43,7.51-3.43-4.66-10-6.69-13.85-13.49-5.42-9.52-7-21.15.8-30.95,14.19-17.89,38.76-13.24,49.12,5.67,2,3.69-.59,6.56.31,9.91.17.66,1.21,1.14,2.26,2.44,1.46,1.8,4.34,15.4,2.55,21.8C565.23,454.31,554.72,457.93,551.89,457.87Z" transform="translate(-178.72 -237.11)"/><path class="cls-23" d="M566,451.65c-.29,1.13-5.38,1.89-7.43,1.76,3.87-12.05-7.48-16.33-3.27-28,2.54-7-4.37-11.15-.37-15.85a34.36,34.36,0,0,1,6,7.94c2,3.69-.59,6.56.31,9.91.17.66,1.21,1.14,2.26,2.44C564.89,431.65,567.61,445.2,566,451.65Z" transform="translate(-178.72 -237.11)"/><path class="cls-24" d="M551,443.39c.34-2.81-.67-3.57-1.75-3s-2.53,2.81-2.83,5.7c-.48,4.68,2.93,9.64,6.61,6.53-3.55,1-4.22-3.36-3.77-6.28C549.58,444.33,550.41,442.78,551,443.39Z" transform="translate(-178.72 -237.11)"/><path class="cls-25" d="M549.63,444.94c1.45,1.64,2,2.67,1.88,3.39-.12.5-.7,1.17-2.08.33A6.67,6.67,0,0,1,549.63,444.94Z" transform="translate(-178.72 -237.11)"/><path class="cls-26" d="M522.81,457.89c-3.32-5.4-10.06-9-13.59-15.22s-6.84-15.11-2.14-22.68c-1.93-17.92,19.08-27.55,35.1-27.45,11.46.07,15.65,13.24,9.23,20.26a16.47,16.47,0,0,1,1.2,13.06c-1.85,4.62-1.85,5.25-1.05,9.16.64,3.09,2.26,10.57-2.33,5.11-3-3.53-6.7,2.17-6.38,6.71a20,20,0,0,1-.91,8.45C539.07,464.09,524.66,460.89,522.81,457.89Z" transform="translate(-178.72 -237.11)"/><path class="cls-27" d="M513.74,413.41c-.33-17.05,22.78-20.94,31.2-19.43s12.33,16.85,1.31,19.5C538.74,415.29,526.44,406.26,513.74,413.41Z" transform="translate(-178.72 -237.11)"/></g></g></svg>