<?xml version="1.0" encoding="UTF-8"?>
<svg width="387px" height="249px" viewBox="0 0 387 249" version="1.1" xmlns="http://www.w3.org/2000/svg" xmlns:xlink="http://www.w3.org/1999/xlink">
    <title>pricing</title>
    <desc>Created with Sketch.</desc>
    <defs>
        <polygon id="path-1" points="0 280 387 280 387 0 0 0"></polygon>
    </defs>
    <g id="page-1" stroke="none" stroke-width="1" fill="none" fill-rule="evenodd">
        <g id="Pricing" transform="translate(-819.000000, -183.000000)">
            <g id="pricing" transform="translate(819.000000, 152.000000)">
                <path d="M114.188257,163.764226 C114.18959,161.974519 115.554052,160.524402 117.235851,160.52582 L117.235851,167.005469 C115.553163,167.005942 114.188702,165.554879 114.188257,163.764226 M117.235851,169.287534 L117.235851,172 L129,172 L129,156 L117.235851,156 L117.235851,158.24612 C114.370926,158.217742 112.026452,160.666765 112.000229,163.71551 C111.973562,166.764728 114.27448,169.259629 117.13985,169.287534 C117.17185,169.288007 117.203851,169.288007 117.235851,169.287534" id="Fill-1" fill="#C1D8ED"></path>
                <path d="M384,280 L4,280 C4.80178522,269.277477 15.9686912,260.181103 26.9142258,257.482746 C42.9256892,253.540192 59.8697481,264.380731 75.8446212,260.30415 C84.9213056,257.990947 92.0664788,251.249402 99.5748109,245.65188 C127.900744,224.53069 159.616312,218.288197 193.138069,229.466775 C210.658883,235.307648 226.623237,245.522428 244.570785,249.863859 C267.779563,255.481508 292.050374,250.824453 315.91732,250.05552 C339.159029,249.307629 372.463074,258.781379 384,280" id="Fill-3" fill="#F3F5FD"></path>
                <polygon id="Fill-5" fill="#C1D8ED" points="244 208.703113 246.620766 208 265 279.296887 262.379234 280"></polygon>
                <polygon id="Fill-7" fill="#C1D8ED" points="202 279.575831 213.251929 209 216 209.423713 204.748535 280"></polygon>
                <path d="M249.256715,141.0228 C249.256715,141.0228 272,139.593513 272,159.367905 C272,179.142297 268.650338,206.779137 251.8901,209.876535 C235.129862,212.973932 210.371733,212.039644 204.62408,211.070195 C197.561801,209.878818 194.483324,193.575813 203.889908,192.484897 C230.58304,189.387043 217.655182,143.167187 249.256715,141.0228" id="Fill-9" fill="#C1D8ED"></path>
                <path d="M242,132 C242,132 238.44422,130.104147 239.238328,120.367788 L231.891341,119 C231.891341,119 232.716716,127.729708 229,130.501352 L242,132 Z" id="Fill-11" fill="#E98862"></path>
                <path d="M230,128 L236,123.052621 L231.28762,123 C231.151081,124.738453 230.71434,126.434516 230,128" id="Fill-13" fill="#000000"></path>
                <path d="M242.458467,116.193046 C241.949963,119.106742 240.345299,121.86627 237.751698,122.80679 C234.673523,123.924284 232.393308,124 228.843904,124 C224.00092,124 224.160605,118.993168 224.02439,113.948023 C223.886795,108.882351 224.294058,103.448591 226.208426,101.683406 C230.027959,98.1603335 241.244039,100.391674 242.608487,106.284747 C243.31395,109.332998 242.943041,113.419379 242.458467,116.193046" id="Fill-15" fill="#E98862"></path>
                <path d="M221.900829,104.03575 C221.900829,104.03575 219.967266,103.58292 220.496395,101.561878 C220.847503,100.221257 222.485561,100.518911 222.485561,100.518911 C222.485561,100.518911 220.934944,100.221257 220.934944,98.8016373 C220.934944,97.9082034 221.590077,96.3921871 223.567585,97.2583478 C225.887681,98.2745113 228.533325,98.1437878 230.544912,97.7892356 C231.682988,97.5277886 232.838552,97.3570957 234.000842,97.2776271 L234.006671,97.2776271 C235.343843,97.2531752 236.675634,97.4403261 237.959444,97.8320264 C241.555727,98.9605745 246.998581,102.341517 245.841672,110.00765 C244.54979,118.562985 240.721677,121.834835 239.037432,122.884384 C238.673768,123.113856 238.202485,122.991126 237.98321,122.610241 C237.951821,122.555225 237.926261,122.495976 237.907876,122.434376 C237.430763,120.830897 236.607923,116.796337 236.837511,108.477057 C225.782752,107.908551 222.602597,107.735977 222.602597,107.735977 C222.602597,107.735977 220,107.838487 220,105.844718 C220,103.85095 221.900829,104.03575 221.900829,104.03575" id="Fill-17" fill="#0F1011"></path>
                <path d="M231,112 C231.552105,112 232,112.447895 232,113 C232,113.552105 231.552105,114 231,114 C230.447205,114 230,113.552105 230,113 C230,112.447895 230.447205,112 231,112" id="Fill-19" fill="#0F1011"></path>
                <path d="M226.000345,112 C226.552641,112 227,112.447895 227,113 C227,113.552105 226.552641,114 226.000345,114 C225.447359,114 225,113.552105 225,113 C225,112.447895 225.447359,112 226.000345,112" id="Fill-21" fill="#0F1011"></path>
                <path d="M225.25429,111 C225.109073,110.991483 224.995139,110.76863 225.00016,110.501774 C225.004408,110.249113 225.114093,110.045422 225.2512,110.034067 L226.733882,110 C226.877554,110.004258 226.994191,110.213627 227,110.476934 C227.00153,110.74379 226.885665,110.962385 226.740834,110.965933 L226.740448,110.965933 L225.257766,111 L225.25429,111 Z" id="Fill-23" fill="#0F1011"></path>
                <path d="M232.736508,112 C232.715555,112 232.69499,111.997363 232.674425,111.991649 L231.205768,111.591263 C231.063365,111.554345 230.97412,111.394366 231.006714,111.233069 C231.03892,111.071772 231.180547,110.970687 231.322562,111.007605 C231.324891,111.008044 231.327219,111.008484 231.329547,111.009363 L232.797815,111.409749 C232.939443,111.448425 233.026747,111.610162 232.992602,111.77102 C232.964276,111.905068 232.857959,111.99956 232.736508,112" id="Fill-25" fill="#0F1011"></path>
                <path d="M235.005797,114.30996 C234.912617,115.698636 235.953865,116.90024 237.331209,116.994186 C238.681291,117.08608 239.858849,116.078111 239.987835,114.720204 C240.121704,113.358195 239.135387,112.144283 237.784492,112.009313 C237.756823,112.006442 237.728747,112.00398 237.701078,112.002339 C235.919686,111.945725 235.118507,112.922516 235.005797,114.30996" id="Fill-27" fill="#E98862"></path>
                <path d="M228.777236,116 C228.899756,116 229,115.906296 229,115.790838 C229,115.699226 228.935844,115.617653 228.842283,115.59088 L227.52931,115.212297 L228.44799,113.292194 C228.496552,113.186358 228.444871,113.062953 228.332152,113.017356 C228.221216,112.972177 228.092458,113.018192 228.041668,113.120681 L227.02007,115.25664 C226.968834,115.362057 227.019179,115.485881 227.131452,115.53357 C227.139472,115.537335 227.148828,115.540263 227.157293,115.542773 L228.711743,115.990797 C228.732683,115.997072 228.754959,116 228.777236,116" id="Fill-29" fill="#000000"></path>
                <path d="M232,118.383213 C232,118.383213 229.060763,118.672935 227,118 C227,118 227.017031,119.809219 229.34205,119.98747 C231.66707,120.165721 232,118.383213 232,118.383213" id="Fill-31" fill="#FFFFFF"></path>
                <polygon id="Fill-33" fill="#E98862" points="196 266.742809 206.091005 266 207 277.257191 196.908995 278"></polygon>
                <path d="M184.858166,279.909356 C183.826824,279.904024 182.995023,279.008737 183,277.908895 C183,277.859938 183.002295,277.81195 183.005477,277.763478 C183.061839,276.990826 183.533193,276.323844 184.214089,276.052883 L195.323863,272.084922 C195.759309,271.931264 196.236572,271.987977 196.629745,272.240034 C198.156987,273.370413 199.983768,273.947721 201.841912,273.8881 C203.289156,273.778552 204.678218,273.237114 205.851831,272.326315 C206.15137,272.063594 206.594088,272.110128 206.840447,272.430046 C206.944081,272.5648 207.000898,272.733484 207,272.90847 L207,278.701421 C207,279.41833 206.455455,280 205.782741,280 L205.777741,280 L184.858166,279.909356 Z" id="Fill-35" fill="#C1D8ED"></path>
                <polygon id="Fill-37" fill="#E98862" points="170 277.379594 171.822994 266 181 267.620406 179.176563 279"></polygon>
                <path d="M228.373739,181.029547 L228.373739,181 L182.633156,181 C178.300018,181 174.683035,184.318364 174.291911,188.651329 L167,269.282578 L183.68113,270.803571 L187.600963,227.459825 L191.772037,272 L208.448188,270.424913 L202.441007,206.278207 L224.260156,206.278207 L224.260156,206.228659 L236.758441,206.228659 C246.281203,206.228659 254,198.477324 254,188.915435 L254,181.029547 L228.373739,181.029547 Z" id="Fill-39" fill="#262626"></path>
                <path d="M159.858167,279.909841 C158.826824,279.904994 157.995023,279.009706 158,277.91035 C158,277.861392 158.001841,277.81292 158.005477,277.763963 C158.061839,276.991795 158.533194,276.324814 159.213635,276.053367 L170.323867,272.084922 C170.759313,271.931264 171.236122,271.987977 171.629295,272.240034 C173.156538,273.370413 174.983774,273.947721 176.841919,273.8881 C178.289162,273.778552 179.678225,273.237114 180.850929,272.326315 C181.151378,272.063594 181.594096,272.110613 181.840455,272.430531 C181.944089,272.565285 182.000452,272.733969 182,272.90847 L182,278.701421 C182,279.41833 181.455008,280 180.782749,280 L180.777749,280 L159.858167,279.909841 Z" id="Fill-41" fill="#C1D8ED"></path>
                <path d="M267.003335,141.131897 C267.003335,141.131897 266.750194,135.531236 270.654819,135.586775 C273.118175,135.621313 284.740863,134.356497 284.976764,135.438825 C285.561074,138.116408 274.9387,139.423229 274.115766,142 L267.003335,141.131897 Z" id="Fill-43" fill="#E98862"></path>
                <path d="M269,136.628083 C269,136.628083 274.31148,134.809292 275.660233,135.016441 C276.855543,135.200221 274.513044,137 274.513044,137 L269,136.628083 Z" id="Fill-45" fill="#E98862"></path>
                <path d="M185,150.656229 C185,150.656229 183.537315,144.815095 179.803366,146.217371 C177.44776,147.10262 165.898004,149.810323 166.00068,151.004275 C166.25508,153.95662 176.856911,151.636308 178.432357,154 L185,150.656229 Z" id="Fill-47" fill="#E98862"></path>
                <path d="M181,146.078838 C181,146.078838 174.622278,145.774933 173.268041,146.360477 C172.069359,146.878807 175.27957,148 175.27957,148 L181,146.078838 Z" id="Fill-49" fill="#E98862"></path>
                <path d="M266.240826,138.79686 L263.687865,151.420866 L255.602802,134.711189 L255.560321,134.731884 C255.093032,133.503515 254.370857,132.388739 253.442217,131.462979 C251.359742,129.365876 247.750698,128.004599 243.356443,128 C243.028016,130.579988 227.464955,130.589186 227.346648,128.059786 C226.75283,128.068984 226.291478,128.08278 226.003248,128.091978 C220.881338,128.314565 218.253921,130.44754 217.023347,133.664937 L201.542506,158.542738 L182.686951,145.339728 L177,153.571776 L200.145663,169.777874 C202.402629,171.358979 205.505558,170.798372 207.076435,168.52605 C207.121657,168.459826 207.166421,168.392222 207.208902,168.323698 L217.184134,152.295119 C217.433995,154.548585 217.635436,156.770778 217.659189,158.8688 C217.83231,173.80146 213.831345,176.615992 215.804649,181.17811 C217.718114,185.60686 255.325534,187.446424 255.827996,179.655871 C256.147287,174.698247 251.807847,170.370673 251.807847,160.708364 C251.807847,158.158729 252.425417,155.419618 253.198751,152.640497 L261.16231,169.099075 C262.365021,171.588464 265.344618,172.625059 267.817185,171.413706 C269.211744,170.731228 270.210273,169.433415 270.518601,167.903358 L276,140.797385 L266.240826,138.79686 Z" id="Fill-51" fill="#367CFF"></path>
                <path d="M227,128.063328 C227.118688,130.742586 228.48816,134.683531 232.697004,134.975814 C238.316405,135.375267 242.671327,130.732843 243,128 L242.98174,128 C237.458203,128 230.227389,128.009743 227,128.063328" id="Fill-53" fill="#E98862"></path>
                <polygon id="Fill-55" fill="#C1D8ED" points="344 208.703113 346.620822 208 365 279.296887 362.379178 280"></polygon>
                <polygon id="Fill-57" fill="#C1D8ED" points="302 279.575828 313.252302 209 316 209.423716 304.748626 280"></polygon>
                <path d="M349.257046,141.0228 C349.257046,141.0228 372,139.593513 372,159.367905 C372,179.142297 368.650778,206.779137 351.889986,209.876535 C335.130112,212.973932 310.372302,212.039644 304.623699,211.070195 C297.561838,209.878818 294.483344,193.575813 303.889981,192.484897 C330.583265,189.387043 317.655792,143.167187 349.257046,141.0228" id="Fill-59" fill="#C1D8ED"></path>
                <path d="M354.071278,113.22639 C354.141247,106.468106 351.454081,102.280143 347.810675,99.9807174 C344.21483,97.7117449 332.940257,95.7368479 328.665761,103.973691 C325.876615,109.347956 326.977365,111.269219 326.187587,119.877861 C325.397809,128.486503 322.361714,129.389183 319.282631,139.823185 C316.867566,148.007758 330.395316,152.352985 342.107079,151.97755 C353.819299,151.602116 361.24559,149.023159 361.925613,141.619909 C362.902432,130.993645 353.933627,126.470699 354.071278,113.22639" id="Fill-61" fill="#0F1011"></path>
                <path d="M347,132 C347,132 343.457559,130.085278 344.341443,120.427204 L336.999221,119 C336.999221,119 337.745458,127.673399 334,130.390551 L347,132 Z" id="Fill-63" fill="#E98862"></path>
                <path d="M335,128 L341,123.097733 L336.320862,123 C336.170009,124.741595 335.72194,126.437256 335,128" id="Fill-65" fill="#000000"></path>
                <path d="M348.401949,116.220754 C347.864823,119.117473 346.232234,121.850235 343.625441,122.764032 C340.78305,123.845874 337.715204,124.225563 334.689775,123.871307 C326.631953,123.147355 328.395481,105.100769 332.256338,101.62725 C336.117195,98.1537306 347.333229,100.476828 348.643541,106.357013 C349.322672,109.399976 348.911874,113.465283 348.401949,116.220754" id="Fill-67" fill="#E98862"></path>
                <path d="M337.000345,112 C337.552641,112 338,112.447205 338,113 C338,113.552105 337.552641,114 337.000345,114 C336.447359,114 336,113.552105 336,113 C336,112.447205 336.447359,112 337.000345,112" id="Fill-69" fill="#0F1011"></path>
                <path d="M331.999655,112 C332.552641,112 333,112.447895 333,113 C333,113.552795 332.552641,114 331.999655,114 C331.447359,114 331,113.552795 331,113 C331,112.447895 331.447359,112 331.999655,112" id="Fill-71" fill="#0F1011"></path>
                <path d="M330.254288,111 C330.108215,110.989083 329.994387,110.759098 330.000214,110.485444 C330.005265,110.227074 330.116373,110.018923 330.254288,110.009461 L331.745712,110 C331.891785,110.010189 332.005613,110.240902 331.999786,110.514556 C331.994347,110.772926 331.883627,110.980349 331.745712,110.990539 L330.254288,111 Z" id="Fill-73" fill="#0F1011"></path>
                <path d="M337.734489,112 C337.712698,112 337.691296,111.996966 337.669895,111.990901 L336.200964,111.581527 C336.058546,111.542106 335.97255,111.381822 336.00796,111.223704 C336.04337,111.065586 336.187345,110.969415 336.329763,111.008837 L337.798694,111.418644 C337.940723,111.458065 338.027497,111.617916 337.992087,111.776034 C337.962903,111.907727 337.856283,112.000432 337.734489,112" id="Fill-75" fill="#0F1011"></path>
                <path d="M337,118.42104 C337,118.42104 334.055329,118.682603 332,118 C332,118 332,119.789292 334.324827,119.98483 C336.649654,120.180367 337,118.42104 337,118.42104" id="Fill-77" fill="#FFFFFF"></path>
                <path d="M342.482111,108.705633 C341.947306,115.536921 342.615478,122.410665 344.454957,129 C344.454957,129 349.985886,119.45884 350.90741,111.476222 C351.770056,103.992117 346.413976,99.5187285 342.778283,98.6508938 C328.959438,95.3516611 328,105.667983 328,105.667983 C328.892085,109.1868 343.978138,111.37031 343.978138,111.37031" id="Fill-79" fill="#0F1011"></path>
                <path d="M340.010539,116.269386 C339.884877,117.645947 340.897493,118.863988 342.271235,118.989501 C343.645383,119.115013 344.860522,118.100726 344.985371,116.724164 C345.13218,115.372868 344.157385,114.158088 342.808857,114.011792 C342.780796,114.008532 342.752736,114.006087 342.725082,114.00405 C340.945074,113.929476 340.135388,114.892417 340.010539,116.269386" id="Fill-81" fill="#E98862"></path>
                <path d="M333.777688,116 C333.90045,116 334.000445,115.90594 334,115.790559 C334,115.699843 333.937055,115.619578 333.845096,115.591987 L332.533556,115.202368 L333.471008,113.291061 C333.51922,113.184877 333.466544,113.061972 333.353157,113.016823 C333.244234,112.973346 333.117901,113.016823 333.065225,113.116318 L332.020636,115.2425 C331.968853,115.347012 332.017957,115.47159 332.129559,115.520083 C332.137594,115.523427 332.146076,115.526772 332.154558,115.52928 L333.707603,115.989131 C333.73037,115.996238 333.753583,116 333.777688,116" id="Fill-83" fill="#000000"></path>
                <path d="M283.994791,158.747973 C283.994791,158.747973 272.254673,156.094732 267.262838,160.782545 C266.914768,161.111269 266.911927,161.646517 267.257155,161.978398 C267.430953,162.14524 267.670102,162.235876 267.917776,162.22821 C270.720326,162.132614 274.535356,162.348607 276.852029,163.341092 C276.041288,163.701832 275.216814,164.163579 275.401504,164.468404 C275.914373,165.31479 284,164.896783 284,164.896783 L283.994791,158.747973 Z" id="Fill-85" fill="#E98862"></path>
                <polygon id="Fill-87" fill="#E98862" points="300 266.742837 310.090563 266 311 277.257163 300.909437 278"></polygon>
                <path d="M289.858583,279.909351 C288.827714,279.904503 287.995473,279.009646 288,277.909738 C288,277.861263 288,277.812787 288.005927,277.764312 C288.062743,276.992098 288.533634,276.324591 289.214062,276.053613 L300.324086,272.084927 C300.759524,271.93126 301.236324,271.987976 301.62949,272.240049 C303.156704,273.370496 304.983906,273.948324 306.842015,273.888214 C308.289687,273.77866 309.678269,273.237189 310.851405,272.32585 C311.151848,272.063113 311.595013,272.110619 311.840913,272.431527 C311.94409,272.566289 312.000452,272.734014 312,272.907556 L312,278.701342 C312,279.418295 311.455473,280 310.782772,280 L310.777772,280 L289.858583,279.909351 Z" id="Fill-89" fill="#C1D8ED"></path>
                <polygon id="Fill-91" fill="#E98862" points="266 277.379536 267.822624 266 277 267.620464 275.176933 279"></polygon>
                <path d="M263,270.562709 L279.376671,186.357251 C280.33819,182.614072 283.675388,180 287.49516,180 L333.325618,180 L333.325618,180.029846 L359,180.029846 L359,187.995581 C359,197.654287 351.266572,205.484566 341.726214,205.484566 L329.203784,205.484566 L329.203784,205.534616 L307.343278,205.534616 L313.362299,270.330368 L296.654539,271.920943 L291.287719,211.560344 L279.241967,273 L263,270.562709 Z" id="Fill-93" fill="#262626"></path>
                <path d="M322.592823,158.868379 C322.600093,159.484183 322.597367,160.071933 322.592823,160.647266 L318.509894,160.647266 L322.281093,153.813176 C322.451499,155.543313 322.575555,157.243558 322.594186,158.868379 L322.592823,158.868379 Z M305.176416,170.67535 L321.682627,170.67535 C320.708813,175.981197 319.471438,178.210784 320.748348,181.178049 C322.652351,185.60687 360.064431,187.446464 360.564743,179.655785 C360.88238,174.698081 356.565427,170.365838 356.565427,160.707972 C356.565427,151.050106 365.34929,138.706434 358.192236,131.463035 C356.120099,129.365898 352.530212,128.004599 348.158728,128 C347.831549,130.58003 332.349591,130.589228 332.231443,128.059787 C331.640702,128.068985 331.181742,128.082782 330.89546,128.09198 C325.560614,128.324688 322.945904,130.651774 321.798049,134.125386 L309.665138,156.10439 L283,157.842345 L283.593013,166.560179 L305.177779,166.019339 L305.176416,170.67535 Z" id="Fill-95" fill="#367CFF"></path>
                <path d="M331,128.063328 C331.118688,130.742586 332.48816,134.683531 336.697004,134.975814 C342.316405,135.375267 346.671327,130.732843 347,128 L346.98174,128 C341.458203,128 334.227389,128.009743 331,128.063328" id="Fill-97" fill="#E98862"></path>
                <path d="M254.858164,279.91032 C253.827275,279.905473 252.995473,279.010616 253,277.911193 L253,277.909738 C253,277.861263 253.001837,277.812787 253.005473,277.764312 C253.06229,276.991613 253.533644,276.325076 254.214085,276.053613 L265.323865,272.084927 C265.759311,271.93126 266.23612,271.987976 266.629748,272.240049 C268.156991,273.370496 269.983773,273.947839 271.841918,273.888214 C273.289162,273.77866 274.678225,273.237189 275.851384,272.32585 C276.151832,272.063598 276.594551,272.110619 276.84091,272.431042 C276.944089,272.565804 277.000452,272.734014 277,272.907556 L277,278.701342 C277,279.418295 276.455008,280 275.782749,280 L275.777294,280 L254.858164,279.91032 Z" id="Fill-99" fill="#C1D8ED"></path>
                <path d="M304.995264,164.747991 C304.995264,164.747991 293.255106,162.094686 288.263254,166.782612 C287.91471,167.111344 287.911869,167.646605 288.257098,167.978493 C288.430896,168.14579 288.670047,168.235977 288.917721,168.228311 C291.719807,168.132262 295.535323,168.348711 297.852005,169.34122 C297.041261,169.701969 296.217257,170.163727 296.401474,170.468559 C296.914346,171.314515 305,170.896948 305,170.896948 L304.995264,164.747991 Z" id="Fill-101" fill="#E98862"></path>
                <polygon id="Fill-103" fill="#DEE8F5" points="264 67.4715251 268.392629 65 277 79.5280282 272.607371 82"></polygon>
                <mask id="mask-2" fill="white">
                    <use xlink:href="#path-1"></use>
                </mask>
                <g id="Clip-106"></g>
                <polygon id="Fill-105" fill="#DEE8F5" mask="url(#mask-2)" points="261 82 266 82 266 65 261 65"></polygon>
                <polygon id="Fill-107" fill="#DEE8F5" mask="url(#mask-2)" points="290 82 295 82 295 60 290 60"></polygon>
                <polygon id="Fill-108" fill="#0CBC8B" mask="url(#mask-2)" points="285 82 290 82 290 65 285 65"></polygon>
                <polygon id="Fill-109" fill="#0CBC8B" mask="url(#mask-2)" points="295 82 300 82 300 62 295 62"></polygon>
                <polygon id="Fill-110" fill="#C1D8ED" mask="url(#mask-2)" points="277 82 285 82 285 62 277 62"></polygon>
                <path d="M308,76 C308,76 307.974199,67.0560594 312.457042,65.1878696 C316.939884,63.3196798 310.228284,76 310.228284,76 L308,76 Z" id="Fill-111" fill="#8DDBE0" mask="url(#mask-2)"></path>
                <path d="M310.437178,76 C310.437178,76 312.737684,60 308.036629,60 C303.335575,60 308.245168,76 308.245168,76" id="Fill-112" fill="#8DDBE0" mask="url(#mask-2)"></path>
                <path d="M309,77.5379828 C309,77.5379828 306.847365,62.8920834 303.011094,64.0671018 C299.174824,65.2421202 307.491323,78 307.491323,78 L309,77.5379828 Z" id="Fill-113" fill="#8DDBE0" mask="url(#mask-2)"></path>
                <polygon id="Fill-114" fill="#DEE8F5" mask="url(#mask-2)" points="304 82 314 82 314 72 304 72"></polygon>
                <polygon id="Fill-115" fill="#C1D8ED" mask="url(#mask-2)" points="257 84 317 84 317 82 257 82"></polygon>
                <polygon id="Fill-116" fill="#DEE8F5" mask="url(#mask-2)" points="258 84 304 84 304 82 258 82"></polygon>
                <polygon id="Fill-117" fill="#C1D8ED" mask="url(#mask-2)" points="32 279.296882 50.3799673 208 53 208.703118 34.6204843 280"></polygon>
                <polygon id="Fill-118" fill="#C1D8ED" mask="url(#mask-2)" points="81 209.424169 83.7490808 209 95 279.576743 92.251383 280"></polygon>
                <path d="M48.7436025,141.0228 C48.7436025,141.0228 26,139.593513 26,159.367905 C26,179.142297 29.3519351,206.779137 46.1102341,209.876535 C62.8685331,212.973932 87.6278852,212.039644 93.3759607,211.070195 C100.438197,209.878818 103.516654,193.575813 94.1101285,192.484897 C67.4148676,189.387043 80.3444812,143.167187 48.7436025,141.0228" id="Fill-119" fill="#C1D8ED" mask="url(#mask-2)"></path>
                <path d="M56,131 C56,131 59.5560311,129.104485 58.7618677,119.369857 L66.108914,118 C66.108914,118 65.2834807,126.728155 69,129.498844 L56,131 Z" id="Fill-120" fill="#E98862" mask="url(#mask-2)"></path>
                <path d="M67,128 L61,123.052621 L65.7121224,123 C65.8486401,124.73894 66.2853161,126.434516 67,128" id="Fill-121" fill="#000000" mask="url(#mask-2)"></path>
                <path d="M54.5433438,116.119403 C55.0540095,119.019719 56.6635763,121.766574 59.2653861,122.702775 C62.1017512,123.809689 65.170363,124.217404 68.2034222,123.890506 C76.2784977,123.239433 74.6813975,105.18465 70.8472487,101.676394 C67.0131,98.1681375 55.7613694,100.390139 54.392822,106.25615 C53.6850005,109.290404 54.0571493,113.358473 54.5433438,116.119403" id="Fill-122" fill="#E98862" mask="url(#mask-2)"></path>
                <path d="M72.9576876,102.011853 C72.7253997,101.628493 72.3990375,101.315507 72.0124855,101.104844 C68.5495683,99.149149 62.1324488,98.4727118 59.0502875,99.4301875 C55.4745702,100.541378 50.9911022,103.6541 52.1396119,111.202324 C52.1882096,111.519939 52.240374,111.825979 52.2943219,112.128316 C48.8964988,111.525032 45.6707738,113.89696 45.090277,117.425916 C44.5093344,120.954408 46.7929783,124.303721 50.1912473,124.907005 C52.8101704,125.371853 55.4250808,124.064352 56.7082372,121.648439 C57.2387988,122.124399 57.8117161,122.546652 58.4194097,122.909177 C58.8460881,123.172159 58.9495254,122.957792 59.0975476,122.46609 C59.6147336,120.747912 60.1230026,113.95252 59.7172791,109.018372 L68.1197689,108.716498 L69.5839404,104.39119 L70.7837228,108.716498 L73.6456342,108.716498 C74.0295111,106.373275 74.4240884,103.716604 72.9576876,102.011853" id="Fill-123" fill="#0F1011" mask="url(#mask-2)"></path>
                <path d="M66,112 C66.5521049,112 67,112.447205 67,113 C67,113.552105 66.5521049,114 66,114 C65.4478951,114 65,113.552105 65,113 C65,112.447205 65.4478951,112 66,112" id="Fill-124" fill="#0F1011" mask="url(#mask-2)"></path>
                <path d="M71,112 C71.5521049,112 72,112.447205 72,113 C72,113.552105 71.5521049,114 71,114 C70.4478951,114 70,113.552105 70,113 C70,112.447205 70.4478951,112 71,112" id="Fill-125" fill="#0F1011" mask="url(#mask-2)"></path>
                <path d="M71.7453454,111 C71.8905636,110.991483 72.0044981,110.767921 71.9998635,110.501774 C71.9952289,110.249113 71.885929,110.045422 71.7484352,110.034067 L70.2661284,110 C70.1224551,110.004258 70.0058171,110.213627 70.0000238,110.476934 C69.9980927,110.74379 70.1139583,110.962385 70.2591764,110.965933 L70.2595627,110.965933 L71.7422557,111 L71.7453454,111 Z" id="Fill-126" fill="#0F1011" mask="url(#mask-2)"></path>
                <path d="M64.2651974,112 C64.2862452,112 64.3069033,111.997355 64.3271715,111.991624 L65.8024662,111.590479 C65.944344,111.54816 66.0285352,111.384175 65.9911169,111.223717 C65.9548679,111.068549 65.8172776,110.972891 65.6785181,111.006834 L64.2032234,111.407979 C64.0609558,111.447212 63.9728669,111.608993 64.0075568,111.770333 C64.0364001,111.905224 64.1428084,112 64.2651974,112" id="Fill-127" fill="#0F1011" mask="url(#mask-2)"></path>
                <path d="M61.9884136,114.27755 C62.1200972,115.643729 61.1141805,116.857392 59.741663,116.988467 C58.3691456,117.119543 57.1494461,116.118271 57.0181689,114.752092 C57.0157303,114.728628 57.0136982,114.705569 57.0120725,114.682104 C56.8787631,113.33858 57.8647647,112.14191 59.2141156,112.009216 C59.2413465,112.006384 59.2689838,112.003957 59.2962147,112.002338 C61.0755696,111.946105 61.8758322,112.909753 61.9884136,114.27755" id="Fill-128" fill="#E98862" mask="url(#mask-2)"></path>
                <path d="M69.2227736,116 C69.0998026,116 69,115.906572 69,115.791455 C69,115.700112 69.0637133,115.618779 69.1572782,115.592085 L70.470306,115.214618 L69.5520331,113.299754 C69.4981219,113.196315 69.5444588,113.071605 69.6549545,113.021137 C69.7654502,112.970669 69.8991144,113.01363 69.9525801,113.117485 C69.9548078,113.121239 69.95659,113.124993 69.9583722,113.129164 L70.9804577,115.259247 C71.0308045,115.364354 70.9804577,115.487812 70.8686253,115.534944 C70.8601599,115.538698 70.8512489,115.541617 70.842338,115.54412 L69.2882691,115.990824 C69.2668828,115.99708 69.245051,116 69.2227736,116" id="Fill-129" fill="#000000" mask="url(#mask-2)"></path>
                <path d="M66,118.383116 C66,118.383116 68.9384615,118.672763 71,118 C71,118 70.9840659,119.809271 68.6582418,119.987476 C66.3324176,120.165682 66,118.383116 66,118.383116" id="Fill-130" fill="#FFFFFF" mask="url(#mask-2)"></path>
                <polygon id="Fill-131" fill="#E98862" mask="url(#mask-2)" points="90 277.256731 90.9089555 266 101 266.742809 100.091045 278"></polygon>
                <path d="M112.141833,279.909356 C113.172721,279.904509 114.004977,279.009222 114,277.909865 C114,277.860908 113.998159,277.812435 113.994523,277.763478 C113.938161,276.991311 113.466806,276.324329 112.786365,276.052883 L101.676133,272.084922 C101.240687,271.931264 100.763879,271.987977 100.370705,272.240034 C98.8434623,273.370413 97.0162261,273.947721 95.1580815,273.8881 C93.7108377,273.778552 92.3217745,273.237114 91.1490707,272.326315 C90.8486221,272.063594 90.4059037,272.110613 90.159545,272.430531 C90.0559107,272.565285 89.9995482,272.733969 90,272.90847 L90,278.701421 C90,279.41833 90.5449918,280 91.2172511,280 L91.222251,280 L112.141833,279.909356 Z" id="Fill-132" fill="#C1D8ED" mask="url(#mask-2)"></path>
                <polygon id="Fill-133" fill="#E98862" mask="url(#mask-2)" points="130 267.620464 139.176933 266 141 277.379536 131.823067 279"></polygon>
                <path d="M144,268.733349 L122.991235,187.352263 C122.025728,183.612291 118.67311,181.001376 114.835233,181 L68.7934676,181 L68.7934676,181.029821 L43,181.029821 L43,188.98873 C43,198.63916 50.7696163,206.46227 60.3540568,206.46227 L72.9338912,206.46227 L72.9338912,206.512277 L94.8958609,206.512277 L88.8485733,271.252967 L105.633533,272.842639 L111.480793,210.238944 L127.683441,273 L144,268.733349 Z" id="Fill-134" fill="#262626" mask="url(#mask-2)"></path>
                <path d="M152.141723,279.909356 C153.173125,279.904024 154.005428,279.008737 154,277.908895 C154,277.859938 153.998155,277.81195 153.994519,277.763478 C153.938153,276.990826 153.466772,276.324329 152.785838,276.052883 L141.676794,272.084922 C141.241324,271.931264 140.764034,271.987977 140.370837,272.240034 C138.843509,273.370413 137.016624,273.947721 135.158374,273.8881 C133.711048,273.778552 132.321451,273.237114 131.148681,272.326315 C130.84867,272.063594 130.405927,272.110128 130.159554,272.430046 C130.055914,272.5648 129.999548,272.733484 130,272.90847 L130,278.701421 C130,279.41833 130.545023,280 131.21732,280 L131.22232,280 L152.141723,279.909356 Z" id="Fill-135" fill="#C1D8ED" mask="url(#mask-2)"></path>
                <path d="M109,142.62857 C109,142.62857 109.067003,136.703304 112.901792,137.011629 C115.321037,137.205997 126.816472,136.616973 126.987552,137.773315 C127.411009,140.634571 116.896048,141.334099 115.941929,144 L109,142.62857 Z" id="Fill-136" fill="#E98862" mask="url(#mask-2)"></path>
                <path d="M111,136.331016 C111,136.331016 116.364546,134.752213 117.683123,135.033592 C118.850402,135.284157 116.417074,137 116.417074,137 L111,136.331016 Z" id="Fill-137" fill="#E98862" mask="url(#mask-2)"></path>
                <path d="M91.9530455,170 C90.1393464,169.999084 88.4684474,169.021715 87.5827195,167.444472 L71,137.864423 L79.7392745,133 L92.8883632,156.455937 L108.563315,138.882058 L117,143.609668 L95.6947755,168.328497 C94.7443054,169.392804 93.382424,170.000914 91.9530455,170" id="Fill-138" fill="#367CFF" mask="url(#mask-2)"></path>
                <path d="M97,163.203394 C98.30772,163.203394 102.679805,162.541088 102.992254,163.606757 C103.179196,164.245485 99.9204284,165 99.9204284,165" id="Fill-139" fill="#E98862" mask="url(#mask-2)"></path>
                <path d="M96.8288002,168.438668 C96.8288002,168.438668 106.258302,172.28869 111.67532,167.897317 C112.053644,167.589837 112.109432,167.035907 111.800022,166.659943 C111.64391,166.469865 111.414666,166.353395 111.168544,166.338487 C107.515632,166.125114 100.011035,165.393219 100.89004,163 L95,163" id="Fill-140" fill="#E98862" mask="url(#mask-2)"></path>
                <path d="M96.9986324,160.647463 L79.5280973,160.647463 C79.5221712,160.072127 79.5198919,159.484373 79.5280973,158.868565 C79.67397,146.115506 86.3202949,128.749639 71.1996778,128.09198 C70.9124909,128.082782 70.4520802,128.068985 69.8594723,128.059787 C69.7409508,130.589243 54.2100667,130.580045 53.8818531,128 C49.496555,128.004599 45.8953227,129.365906 43.8166368,131.463056 C36.6369648,138.706499 45.4485876,151.050246 45.4485876,160.70817 C45.4485876,170.366094 41.1179918,174.698363 41.4370883,179.656098 C41.9385257,187.446363 79.4688365,185.606759 81.3788572,181.17837 C82.6598018,178.210628 81.4185163,175.981487 80.4416251,170.675608 L97,170.675608 L96.9986324,160.647463 Z" id="Fill-141" fill="#367CFF" mask="url(#mask-2)"></path>
                <path d="M70,128.063328 C69.8813124,130.742586 68.5118402,134.683531 64.3029957,134.975814 C58.6835949,135.375267 54.3286733,130.732843 54,128 L54.0182596,128 C59.5417974,128 66.7726106,128.009743 70,128.063328" id="Fill-142" fill="#E98862" mask="url(#mask-2)"></path>
                <polygon id="Fill-143" fill="#DEE8F5" mask="url(#mask-2)" points="11 280 16 280 16 175 11 175"></polygon>
                <polygon id="Fill-144" fill="#DEE8F5" mask="url(#mask-2)" points="370 280 375 280 375 175 370 175"></polygon>
                <polygon id="Fill-145" fill="#DEE8F5" mask="url(#mask-2)" points="0 177 387 177 387 171 0 171"></polygon>
                <polygon id="Fill-146" fill="#F0F6FF" mask="url(#mask-2)" points="21.4503479 147 25 147.896223 20.5496521 168 17 167.103777"></polygon>
                <polygon id="Fill-147" fill="#C1D8ED" mask="url(#mask-2)" points="15 146.387493 16.9632804 146 20 163.612507 18.0367196 164"></polygon>
                <polygon id="Fill-148" fill="#DEE8F5" mask="url(#mask-2)" points="16 146.341267 17.7002368 146 18 147.659117 16.299399 148"></polygon>
                <polygon id="Fill-149" fill="#0CBC8B" mask="url(#mask-2)" points="17 167.533854 23.8296973 150 25 150.466146 18.1703027 168"></polygon>
                <polygon id="Fill-150" fill="#DEE8F5" mask="url(#mask-2)" points="15 172 26 172 26 158 15 158"></polygon>
                <polygon id="Fill-151" fill="#C1D8ED" mask="url(#mask-2)" points="143 171 167 171 167 166 143 166"></polygon>
                <polygon id="Fill-152" fill="#DEE8F5" mask="url(#mask-2)" points="133 171 159 171 159 166 133 166"></polygon>
                <polygon id="Fill-153" fill="#C1D8ED" mask="url(#mask-2)" points="155 171 157 171 157 166 155 166"></polygon>
                <polygon id="Fill-154" fill="#C1D8ED" mask="url(#mask-2)" points="153 171 155 171 155 166 153 166"></polygon>
                <path d="M136,166 C137.104742,166 138,166.895258 138,168 C138,169.104742 137.104742,170 136,170 C134.895258,170 134,169.104742 134,168 C134,166.895258 134.895258,166 136,166" id="Fill-155" fill="#F3F5FD" mask="url(#mask-2)"></path>
                <polygon id="Fill-156" fill="#C1D8ED" mask="url(#mask-2)" points="145 165 169 165 169 160 145 160"></polygon>
                <polygon id="Fill-157" fill="#F3F5FD" mask="url(#mask-2)" points="135 165 161 165 161 160 135 160"></polygon>
                <polygon id="Fill-158" fill="#DEE8F5" mask="url(#mask-2)" points="137 165 139 165 139 160 137 160"></polygon>
                <polygon id="Fill-159" fill="#DEE8F5" mask="url(#mask-2)" points="139 165 141 165 141 160 139 160"></polygon>
                <path d="M158,161 C159.104742,161 160,161.895258 160,163 C160,164.104742 159.104742,165 158,165 C156.895258,165 156,164.104742 156,163 C156,161.895258 156.895258,161 158,161" id="Fill-160" fill="#DEE8F5" mask="url(#mask-2)"></path>
                <polygon id="Fill-161" fill="#DEE8F5" mask="url(#mask-2)" points="143 165 154 165 154 162 143 162"></polygon>
                <path d="M286.388687,144.882048 L291.932812,167.987 C292.246932,169.30108 291.429672,170.619692 290.106534,170.933367 C289.919797,170.977789 289.728951,171 289.537191,171 L256.852284,171 C255.741906,170.999547 254.768956,170.263408 254.475382,169.200903 L248.088429,146.095045 C247.728196,144.791391 248.501168,143.444675 249.814263,143.087031 C250.026111,143.029464 250.245721,143 250.465331,143 L283.992153,143 C285.133577,143.000907 286.125246,143.779654 286.388687,144.882048" id="Fill-162" fill="#9EBCEA" mask="url(#mask-2)"></path>
                <path d="M304.565355,171 L265.434193,171 C264.641791,171 264,170.328499 264,169.5 C264,168.671501 264.641791,168 265.434193,168 L304.565355,168 C305.357757,168 306,168.671501 306,169.5 C306,170.328499 305.357757,171 304.565355,171" id="Fill-163" fill="#9EBCEA" mask="url(#mask-2)"></path>
                <path d="M270,152 C272.209308,152 274,153.790692 274,156 C274,158.209308 272.209308,160 270,160 C267.790692,160 266,158.209308 266,156 C266,153.790692 267.790692,152 270,152" id="Fill-164" fill="#FFFFFF" mask="url(#mask-2)"></path>
                <path d="M187.796073,167.007834 L187.796073,160.528186 C189.48199,160.484673 190.881796,161.900263 190.922797,163.689497 C190.963351,165.478731 189.629502,166.964321 187.943585,167.007834 C187.894563,167.008779 187.845095,167.008779 187.796073,167.007834 L187.796073,167.007834 Z M193,163.764699 C192.998217,160.715954 190.668773,158.245647 187.796073,158.24612 L187.796073,156 L176,156 L176,172 L187.796073,172 L187.796073,169.287534 C190.669664,169.287534 192.999554,166.815336 193,163.765645 L193,163.764699 Z" id="Fill-165" fill="#C1D8ED" mask="url(#mask-2)"></path>
                <path d="M154,31 C160.627337,31 166,36.3726626 166,43 C166,49.6273374 160.627337,55 154,55 C147.372663,55 142,49.6273374 142,43 C142,36.3726626 147.372663,31 154,31" id="Fill-166" fill="#C1D8ED" mask="url(#mask-2)"></path>
                <path d="M156,31 C162.627337,31 168,36.3726626 168,43 C168,49.6273374 162.627337,55 156,55 C149.372663,55 144,49.6273374 144,43 C144,36.3726626 149.372663,31 156,31" id="Fill-167" fill="#DEE8F5" mask="url(#mask-2)"></path>
                <path d="M156,33 C161.523099,33 166,37.4769007 166,43 C166,48.5226581 161.523099,53 156,53 C150.477342,53 146,48.5226581 146,43 C146,37.4769007 150.477342,33 156,33" id="Fill-168" fill="#F3F5FD" mask="url(#mask-2)"></path>
                <path d="M156.504048,43 C156.41887,43 156.335067,42.9796605 156.26088,42.9411003 L151.253271,40.3363779 C151.014225,40.2122225 150.929505,39.9325549 151.063683,39.7113632 C151.19786,39.4901716 151.500103,39.4117799 151.739149,39.5359353 L156.007637,41.7559029 L156.007637,35.445161 C156.01588,35.1917652 156.244852,34.9921842 156.518702,35.0002353 C156.781103,35.0074388 156.991757,35.2023587 157,35.445161 L157,42.5406671 C156.999542,42.7940629 156.777898,42.9995763 156.504048,43" id="Fill-169" fill="#DEE8F5" mask="url(#mask-2)"></path>
            </g>
        </g>
    </g>
</svg>